<svg xmlns="http://www.w3.org/2000/svg" xmlns:xlink="http://www.w3.org/1999/xlink" width="500" zoomAndPan="magnify" viewBox="0 0 375 374.999991" height="500" preserveAspectRatio="xMidYMid meet" version="1.0"><defs><clipPath id="ffd1083768"><path d="M 271 307 L 375 307 L 375 374.90625 L 271 374.90625 Z M 271 307 " clip-rule="nonzero"/></clipPath><clipPath id="7ef3e954c5"><path d="M 164 256 L 345 256 L 345 374.90625 L 164 374.90625 Z M 164 256 " clip-rule="nonzero"/></clipPath><clipPath id="a426cbbb83"><path d="M 28 212 L 292 212 L 292 374.90625 L 28 374.90625 Z M 28 212 " clip-rule="nonzero"/></clipPath><clipPath id="9539d2759c"><path d="M 228 35.15625 L 249 35.15625 L 249 54 L 228 54 Z M 228 35.15625 " clip-rule="nonzero"/></clipPath><clipPath id="30b712e88c"><path d="M 0 256 L 181 256 L 181 374.90625 L 0 374.90625 Z M 0 256 " clip-rule="nonzero"/></clipPath></defs><path fill="#e4e8ff" d="M 52.222656 251.5625 C 52.878906 248.695312 55.445312 246.558594 58.511719 246.558594 C 59.074219 246.558594 59.621094 246.628906 60.140625 246.765625 C 61.65625 243.527344 64.9375 241.285156 68.75 241.285156 C 69.734375 241.285156 70.683594 241.4375 71.578125 241.714844 C 73.628906 238.320312 77.351562 236.050781 81.605469 236.050781 C 86.667969 236.050781 90.984375 239.261719 92.617188 243.761719 C 93.777344 243.117188 95.105469 242.746094 96.527344 242.746094 C 100.964844 242.746094 104.5625 246.34375 104.5625 250.78125 C 104.5625 251.042969 104.550781 251.304688 104.523438 251.5625 Z M 52.222656 251.5625 " fill-opacity="1" fill-rule="nonzero"/><path fill="#e4e8ff" d="M 306.910156 202.835938 C 307.5 200.285156 309.78125 198.382812 312.511719 198.382812 C 313.015625 198.382812 313.5 198.445312 313.964844 198.566406 C 315.3125 195.683594 318.234375 193.6875 321.625 193.6875 C 322.5 193.6875 323.347656 193.820312 324.144531 194.070312 C 325.96875 191.046875 329.285156 189.027344 333.078125 189.027344 C 337.585938 189.027344 341.425781 191.886719 342.878906 195.890625 C 343.910156 195.316406 345.097656 194.988281 346.359375 194.988281 C 350.3125 194.988281 353.515625 198.191406 353.515625 202.144531 C 353.515625 202.378906 353.503906 202.609375 353.480469 202.835938 Z M 306.910156 202.835938 " fill-opacity="1" fill-rule="nonzero"/><path fill="#e4e8ff" d="M 84.394531 187.167969 C 85.398438 182.808594 89.300781 179.554688 93.964844 179.554688 C 94.820312 179.554688 95.648438 179.664062 96.441406 179.871094 C 98.746094 174.949219 103.742188 171.539062 109.539062 171.539062 C 111.035156 171.539062 112.480469 171.765625 113.839844 172.1875 C 116.957031 167.023438 122.625 163.574219 129.101562 163.574219 C 136.804688 163.574219 143.363281 168.460938 145.851562 175.300781 C 147.609375 174.320312 149.636719 173.761719 151.792969 173.761719 C 158.546875 173.761719 164.019531 179.234375 164.019531 185.984375 C 164.019531 186.382812 164 186.777344 163.964844 187.167969 Z M 84.394531 187.167969 " fill-opacity="1" fill-rule="nonzero"/><path fill="#e4e8ff" d="M 276.171875 78.945312 C 276.707031 76.640625 278.769531 74.917969 281.238281 74.917969 C 281.691406 74.917969 282.132812 74.976562 282.550781 75.085938 C 283.769531 72.480469 286.414062 70.675781 289.484375 70.675781 C 290.277344 70.675781 291.039062 70.796875 291.757812 71.019531 C 293.410156 68.285156 296.410156 66.460938 299.835938 66.460938 C 303.914062 66.460938 307.386719 69.046875 308.699219 72.667969 C 309.632812 72.148438 310.703125 71.851562 311.847656 71.851562 C 315.421875 71.851562 318.316406 74.75 318.316406 78.320312 C 318.316406 78.53125 318.308594 78.742188 318.289062 78.949219 L 276.171875 78.949219 Z M 276.171875 78.945312 " fill-opacity="1" fill-rule="nonzero"/><path fill="#193564" d="M 192.980469 128.765625 C 193.023438 129.296875 193.109375 129.738281 193.195312 130.152344 C 192.613281 130.332031 192.046875 130.957031 192.046875 131.601562 L 191.957031 133.121094 L 190.648438 133.121094 L 190.648438 131.601562 C 190.644531 130.246094 191.710938 129.042969 192.980469 128.765625 Z M 192.980469 128.765625 " fill-opacity="1" fill-rule="nonzero"/><path fill="#193564" d="M 202.097656 129.167969 C 202.097656 129.167969 202.1875 129.03125 202.304688 128.816406 C 203.660156 129.023438 204.785156 130.1875 204.785156 131.601562 L 204.785156 133.121094 L 203.394531 133.121094 L 203.386719 131.601562 C 203.386719 130.875 202.769531 130.28125 202.070312 130.1875 C 202.097656 129.628906 202.097656 129.167969 202.097656 129.167969 Z M 202.097656 129.167969 " fill-opacity="1" fill-rule="nonzero"/><path fill="#f2adab" d="M 246.527344 46.492188 C 245.574219 45.699219 245.527344 42.917969 245.527344 42.917969 L 239.828125 41.847656 L 231.863281 46.890625 C 231.863281 46.890625 233.839844 50.277344 234.222656 53.144531 C 234.222656 53.144531 233.933594 55.050781 232.773438 56.605469 L 239.039062 62.539062 L 241.796875 60.765625 L 241.933594 56.992188 L 241.808594 56.308594 C 242.867188 56.4375 244.015625 56.425781 244.734375 55.90625 C 246.339844 54.757812 247.1875 52 246.574219 50.097656 C 246.574219 50.097656 245.914062 49.226562 247.328125 48.992188 C 248.738281 48.765625 247.484375 47.285156 246.527344 46.492188 Z M 246.527344 46.492188 " fill-opacity="1" fill-rule="nonzero"/><path fill="#f2adab" d="M 198.570312 121.617188 C 198.667969 123.4375 201.765625 125.121094 202.527344 126.359375 C 203.285156 127.59375 202.179688 129.164062 202.179688 129.164062 C 202.179688 129.164062 202.195312 130.765625 201.953125 131.628906 C 201.710938 132.496094 200.75 132.585938 199.796875 131.777344 C 198.847656 130.960938 198.433594 132.347656 197.203125 132.113281 C 195.96875 131.875 195.75 131.210938 194.191406 131.367188 C 191.46875 131.644531 193.769531 121.164062 193.769531 121.164062 Z M 198.570312 121.617188 " fill-opacity="1" fill-rule="nonzero"/><path fill="#f2adab" d="M 265.527344 55.425781 C 265.492188 53.601562 262.453125 51.8125 261.738281 50.550781 C 261.027344 49.289062 262.1875 47.757812 262.1875 47.757812 C 262.1875 47.757812 262.226562 46.15625 262.5 45.300781 C 262.773438 44.441406 263.734375 44.386719 264.65625 45.230469 C 265.578125 46.078125 266.039062 44.707031 267.261719 44.988281 C 268.488281 45.265625 268.683594 45.941406 270.242188 45.839844 C 272.976562 45.660156 270.300781 56.050781 270.300781 56.050781 Z M 265.527344 55.425781 " fill-opacity="1" fill-rule="nonzero"/><path fill="#e4e8ff" d="M 232.773438 56.605469 C 232.773438 56.605469 235.019531 58.613281 238.78125 60.414062 C 238.78125 60.414062 240.90625 58.964844 241.933594 56.992188 L 244.914062 58.507812 C 244.914062 58.507812 247.03125 74.472656 247.007812 84.167969 C 246.984375 93.863281 249.519531 112.851562 255.601562 119.796875 C 255.601562 119.796875 250.472656 130.886719 239.269531 130.886719 C 228.070312 130.886719 218.324219 118.242188 218.324219 118.242188 C 218.324219 118.242188 232.054688 112.605469 233.292969 107.722656 C 234.53125 102.84375 231.179688 90.039062 229.230469 85.015625 C 227.28125 79.996094 227.589844 65.5 230.0625 59.121094 Z M 232.773438 56.605469 " fill-opacity="1" fill-rule="nonzero"/><path fill="#e4e8ff" d="M 192.863281 120.496094 L 192.871094 122.410156 L 199.742188 122.753906 L 199.820312 120.550781 Z M 192.863281 120.496094 " fill-opacity="1" fill-rule="nonzero"/><path fill="#e4e8ff" d="M 271.1875 56.75 L 271.25 54.835938 L 264.390625 54.25 L 264.238281 56.449219 Z M 271.1875 56.75 " fill-opacity="1" fill-rule="nonzero"/><path fill="#e4e8ff" d="M 266.242188 192.742188 L 266.953125 199.191406 L 257.289062 200.777344 L 256.515625 192.742188 Z M 266.242188 192.742188 " fill-opacity="1" fill-rule="nonzero"/><path fill="#e4e8ff" d="M 201.066406 186.101562 L 196.519531 189.265625 L 204.582031 195.9375 L 209.214844 190.917969 Z M 201.066406 186.101562 " fill-opacity="1" fill-rule="nonzero"/><g clip-path="url(#ffd1083768)"><path fill="#e4e8ff" d="M 303.179688 351.085938 L 271 374.9375 L 299 374.9375 L 337.953125 345.929688 L 358.65625 330.382812 L 366.316406 340.570312 L 374.722656 307.179688 L 341.226562 307.179688 L 348.570312 316.957031 L 303.160156 351.054688 Z M 303.179688 351.085938 " fill-opacity="1" fill-rule="nonzero"/></g><path fill="#2878b5" d="M 232.773438 56.605469 C 232.773438 56.605469 220.417969 59.792969 218.859375 61.171875 C 217.300781 62.554688 202.816406 80.089844 201.171875 83.15625 C 199.53125 86.226562 196.878906 90.789062 195.027344 99.523438 C 193.445312 106.996094 191.851562 121.085938 191.851562 121.085938 L 200.582031 121.546875 L 207.5 93.742188 L 218.679688 82.789062 C 218.679688 82.789062 221.570312 107.6875 217.125 117.605469 C 217.125 117.605469 227.179688 123.527344 241.164062 122.871094 C 241.164062 122.871094 239.375 93.152344 235.949219 84.722656 C 232.523438 76.289062 232.277344 66.246094 232.773438 56.605469 Z M 232.773438 56.605469 " fill-opacity="1" fill-rule="nonzero"/><path fill="#2878b5" d="M 241.933594 56.996094 C 241.933594 56.996094 244.855469 75.773438 244.164062 86.109375 C 243.46875 96.449219 243.238281 100.042969 244.710938 107.726562 C 246.183594 115.410156 247.285156 122.328125 247.285156 122.328125 C 247.285156 122.328125 252.957031 121.398438 257.980469 118.632812 C 257.980469 118.632812 256.753906 106.863281 253.847656 99.921875 C 249.023438 88.410156 251.347656 77.460938 251.347656 77.460938 C 251.347656 77.460938 259.230469 86.957031 265.132812 85.851562 C 271.847656 84.59375 271.71875 76.214844 272.140625 67.417969 C 272.53125 59.21875 272.238281 55.71875 272.238281 55.71875 L 263.429688 55.21875 C 263.429688 55.21875 262.429688 65.519531 262.738281 73.335938 L 252.460938 59.503906 C 252.464844 59.503906 249.648438 56.625 241.933594 56.996094 Z M 241.933594 56.996094 " fill-opacity="1" fill-rule="nonzero"/><path fill="#2878b5" d="M 212.65625 156.382812 L 182.785156 156.382812 C 181.496094 156.382812 180.453125 155.339844 180.453125 154.050781 L 180.453125 136.515625 L 214.988281 136.515625 L 214.988281 154.050781 C 214.988281 155.339844 213.941406 156.382812 212.65625 156.382812 Z M 212.65625 156.382812 " fill-opacity="1" fill-rule="nonzero"/><path fill="#2878b5" d="M 245.398438 46.570312 C 245.375 47.347656 244.800781 47.960938 244.117188 47.941406 C 243.429688 47.921875 242.890625 47.273438 242.914062 46.5 C 242.933594 45.722656 243.507812 45.109375 244.195312 45.128906 C 244.882812 45.148438 245.421875 45.796875 245.398438 46.570312 Z M 245.398438 46.570312 " fill-opacity="1" fill-rule="nonzero"/><path fill="#2878b5" d="M 248.445312 44.90625 C 248.421875 45.679688 247.847656 46.292969 247.164062 46.273438 C 246.476562 46.257812 245.9375 45.609375 245.960938 44.835938 C 245.980469 44.058594 246.554688 43.445312 247.242188 43.464844 C 247.929688 43.484375 248.46875 44.128906 248.445312 44.90625 Z M 248.445312 44.90625 " fill-opacity="1" fill-rule="nonzero"/><path fill="#2878b5" d="M 278.429688 37.667969 C 278.140625 37.675781 277.863281 37.769531 277.601562 37.933594 L 247.292969 43.964844 C 246.84375 44.042969 246.515625 44.441406 246.527344 44.902344 C 246.535156 45.359375 246.878906 45.746094 247.335938 45.804688 L 277.753906 48.351562 C 278.046875 48.542969 278.355469 48.644531 278.675781 48.640625 C 280.210938 48.605469 281.402344 46.121094 281.335938 43.089844 C 281.269531 40.058594 279.96875 37.632812 278.429688 37.667969 Z M 278.429688 37.667969 " fill-opacity="1" fill-rule="nonzero"/><path fill="#2878b5" d="M 274.957031 41.578125 C 274.660156 41.570312 274.367188 41.652344 274.085938 41.804688 L 244.34375 45.539062 C 243.855469 45.597656 243.488281 46.007812 243.472656 46.496094 C 243.457031 46.984375 243.804688 47.414062 244.285156 47.5 L 273.617188 52.898438 C 273.929688 53.136719 274.265625 53.277344 274.625 53.289062 C 276.265625 53.335938 277.671875 50.75 277.761719 47.519531 C 277.855469 44.285156 276.601562 41.628906 274.957031 41.578125 Z M 274.957031 41.578125 " fill-opacity="1" fill-rule="nonzero"/><path fill="#2878b5" d="M 279.695312 114.492188 L 292.648438 131.730469 L 212.554688 191.875 L 212.597656 191.929688 L 95.53125 277.382812 L 146.957031 277.382812 L 273.925781 182.835938 L 310.441406 155.414062 L 323.945312 173.382812 L 338.777344 114.492188 Z M 279.695312 114.492188 " fill-opacity="1" fill-rule="nonzero"/><g clip-path="url(#7ef3e954c5)"><path fill="#2878b5" d="M 227.664062 327.769531 L 164.019531 374.9375 L 209.648438 374.9375 L 284.261719 319.375 L 317.960938 294.070312 L 330.421875 310.65625 L 344.109375 256.304688 L 289.582031 256.304688 L 301.539062 272.214844 L 227.625 327.71875 Z M 227.664062 327.769531 " fill-opacity="1" fill-rule="nonzero"/></g><path fill="#ffbd00" d="M 238.78125 60.414062 C 238.78125 60.414062 237.988281 61.988281 236.617188 62.800781 C 236.617188 62.800781 238.515625 64.570312 239.300781 64.660156 C 240.089844 64.753906 240.960938 62.800781 240.960938 62.800781 C 240.960938 62.800781 240.566406 61.234375 238.78125 60.414062 Z M 238.78125 60.414062 " fill-opacity="1" fill-rule="nonzero"/><path fill="#ffbd00" d="M 238.667969 63.019531 C 238.667969 63.019531 236.851562 70.621094 230.199219 74.976562 C 223.546875 79.332031 219.808594 82.808594 219.722656 96.203125 C 219.722656 96.203125 220.273438 105.027344 215.03125 109.382812 L 215.347656 119.773438 C 215.347656 119.773438 222.289062 116.832031 224.96875 112.339844 C 227.648438 107.851562 226.960938 96.199219 226.851562 93.710938 C 226.738281 91.226562 226.585938 83.917969 232.320312 78.828125 C 238.054688 73.742188 239.925781 69.160156 240.289062 63.257812 Z M 238.667969 63.019531 " fill-opacity="1" fill-rule="nonzero"/><path fill="#ffbd00" d="M 197.71875 149.714844 C 198.46875 149.714844 199.074219 149.105469 199.074219 148.359375 L 199.074219 147.222656 C 199.074219 146.472656 198.46875 145.867188 197.71875 145.867188 C 196.972656 145.867188 196.367188 146.472656 196.367188 147.222656 L 196.367188 148.359375 C 196.367188 149.105469 196.972656 149.714844 197.71875 149.714844 Z M 197.71875 149.714844 " fill-opacity="1" fill-rule="nonzero"/><path fill="#ffbd00" d="M 271.816406 47.347656 C 271.890625 44.707031 272.84375 42.5 274.085938 41.804688 L 244.34375 45.539062 C 243.855469 45.597656 243.488281 46.007812 243.472656 46.496094 C 243.457031 46.984375 243.804688 47.414062 244.285156 47.5 L 273.617188 52.898438 C 272.5 52.050781 271.746094 49.878906 271.816406 47.347656 Z M 271.816406 47.347656 " fill-opacity="1" fill-rule="nonzero"/><path fill="#ffbd00" d="M 274.085938 41.804688 C 274.363281 41.652344 274.65625 41.570312 274.957031 41.578125 C 275.261719 41.585938 275.550781 41.6875 275.824219 41.863281 C 276.023438 40.007812 276.703125 38.519531 277.605469 37.933594 L 247.292969 43.964844 C 246.84375 44.042969 246.515625 44.441406 246.527344 44.902344 C 246.527344 45.027344 246.558594 45.148438 246.605469 45.253906 Z M 274.085938 41.804688 " fill-opacity="1" fill-rule="nonzero"/><g clip-path="url(#a426cbbb83)"><path fill="#ffbd00" d="M 44.328125 374.9375 L 127.554688 374.9375 L 234.527344 294.605469 L 261.53125 330.546875 L 291.195312 212.757812 L 173.03125 212.757812 L 198.9375 247.242188 L 28.890625 374.9375 Z M 44.328125 374.9375 " fill-opacity="1" fill-rule="nonzero"/></g><path fill="#193564" d="M 241.933594 56.996094 C 241.933594 56.996094 243.675781 68.1875 244.152344 78.042969 C 245.84375 71.664062 248.46875 65.714844 248.46875 65.714844 C 247.535156 64.453125 244.988281 63.050781 244.988281 63.050781 L 247.203125 61.273438 C 246.429688 59.726562 245.46875 58.175781 244.695312 57.003906 C 243.855469 56.957031 242.933594 56.949219 241.933594 56.996094 Z M 241.933594 56.996094 " fill-opacity="1" fill-rule="nonzero"/><path fill="#193564" d="M 266.792969 151.601562 C 264.574219 144.65625 256.246094 121.589844 255.601562 119.800781 C 254.933594 120.089844 254.277344 120.351562 253.636719 120.585938 C 250.605469 121.695312 248.027344 122.195312 247.421875 122.304688 C 247.417969 122.304688 247.417969 122.304688 247.410156 122.304688 C 247.371094 122.3125 247.34375 122.320312 247.320312 122.320312 C 247.320312 122.320312 247.316406 122.320312 247.316406 122.324219 C 247.300781 122.328125 247.285156 122.328125 247.285156 122.328125 L 246.746094 119.054688 C 246.382812 116.898438 245.855469 113.863281 245.234375 110.515625 C 243.570312 110.644531 241.714844 110.566406 240.183594 110.441406 C 240.730469 116.289062 241.050781 121.113281 241.140625 122.484375 C 241.140625 122.488281 241.164062 122.878906 241.164062 122.878906 C 240.460938 122.910156 239.78125 122.910156 239.101562 122.914062 C 237.996094 122.914062 236.90625 122.890625 235.855469 122.816406 C 235.847656 122.816406 235.839844 122.816406 235.828125 122.816406 C 227.636719 122.265625 221.378906 119.710938 218.644531 118.398438 L 218.328125 118.242188 C 218.328125 118.242188 213.777344 127.804688 219.167969 143.105469 C 224.554688 158.40625 221.972656 158.996094 221.972656 158.996094 L 198.203125 186.363281 L 209.550781 194.460938 C 209.550781 194.460938 235.496094 168.09375 237.382812 161.453125 C 239.410156 154.328125 239.847656 143.5625 239.800781 134.761719 C 244.792969 146.945312 251.757812 158.671875 251.757812 158.671875 C 252.070312 171.328125 254.78125 196.785156 254.78125 196.785156 L 267.628906 195.792969 C 265.945312 187.800781 269.097656 158.824219 266.792969 151.601562 Z M 266.792969 151.601562 " fill-opacity="1" fill-rule="nonzero"/><g clip-path="url(#9539d2759c)"><path fill="#193564" d="M 234.222656 53.144531 C 234.222656 53.144531 233.941406 51.953125 232.039062 50.386719 C 230.136719 48.816406 227.800781 44.859375 229.089844 41.765625 C 229.089844 41.765625 230.15625 39.308594 232.867188 38.761719 C 232.867188 38.761719 234.058594 35.144531 237.144531 35.15625 C 240.230469 35.167969 242.15625 36.660156 243.515625 36.796875 C 244.875 36.933594 248.335938 37.507812 248.109375 40.199219 C 247.878906 42.894531 244.390625 45.609375 241.359375 43.515625 C 241.359375 43.515625 239.992188 42.675781 240.171875 44.949219 C 240.347656 47.222656 240.011719 47.765625 240.011719 47.765625 C 240.011719 47.765625 239.109375 45.574219 237.746094 45.4375 C 236.386719 45.296875 235.652344 46.183594 235.710938 47.246094 C 235.785156 48.582031 235.0625 52 234.222656 53.144531 Z M 234.222656 53.144531 " fill-opacity="1" fill-rule="nonzero"/></g><path fill="#193564" d="M 205.9375 213.003906 L 188.476562 198.003906 C 187.585938 197.476562 188.558594 195.125 189.257812 194.542969 L 196 188.550781 C 198.617188 188 198.53125 191.984375 201.347656 192.214844 C 204.578125 193.21875 205.324219 194.117188 205.925781 194.984375 C 207 196.484375 205.203125 197 204.066406 197.898438 C 201.945312 199.125 202.652344 200.074219 204.039062 201.085938 C 210.257812 205.59375 212.839844 212.472656 205.9375 213.003906 Z M 205.9375 213.003906 " fill-opacity="1" fill-rule="nonzero"/><path fill="#193564" d="M 282.601562 212.847656 L 258.226562 212.847656 C 256.101562 212.863281 254.769531 210.625 254.953125 209.707031 L 255.539062 201.195312 C 256.03125 199.328125 259.800781 200.941406 262.355469 199.214844 C 265.816406 197.800781 266.027344 197.414062 267.148438 197.671875 C 269.121094 198.09375 269.085938 199.328125 268.757812 200.78125 C 267.824219 203.148438 270.875 205.171875 272.78125 205.183594 C 280.5625 205.226562 287.480469 210.707031 282.601562 212.847656 Z M 282.601562 212.847656 " fill-opacity="1" fill-rule="nonzero"/><path fill="#193564" d="M 233.328125 77.898438 C 233.65625 78.421875 233.964844 78.945312 234.253906 79.46875 C 234.085938 78.796875 233.941406 78.117188 233.800781 77.433594 C 233.648438 77.585938 233.492188 77.742188 233.328125 77.898438 Z M 233.328125 77.898438 " fill-opacity="1" fill-rule="nonzero"/><path fill="#193564" d="M 225.871094 68.09375 C 225.871094 68.09375 228.417969 70.917969 230.980469 74.433594 C 231.738281 73.875 232.429688 73.28125 233.054688 72.660156 C 232.457031 67.414062 232.503906 61.945312 232.777344 56.605469 C 232.777344 56.605469 230.710938 57.136719 228.160156 57.863281 C 227.480469 59.171875 226.613281 60.847656 225.941406 62.140625 L 229.4375 64.019531 C 229.433594 64.015625 227.402344 65.488281 225.871094 68.09375 Z M 225.871094 68.09375 " fill-opacity="1" fill-rule="nonzero"/><path fill="#193564" d="M 212.65625 132.574219 L 182.785156 132.574219 C 181.496094 132.574219 180.453125 133.617188 180.453125 134.902344 L 180.453125 136.890625 C 180.453125 138.179688 181.160156 139.359375 182.292969 139.96875 L 196.0625 147.375 C 196.160156 147.425781 196.261719 147.46875 196.363281 147.511719 L 196.363281 147.222656 C 196.363281 146.472656 196.96875 145.867188 197.71875 145.867188 C 198.464844 145.867188 199.074219 146.472656 199.074219 147.222656 L 199.074219 147.511719 C 199.175781 147.46875 199.273438 147.425781 199.371094 147.375 L 213.144531 139.96875 C 214.277344 139.359375 214.980469 138.179688 214.980469 136.890625 L 214.980469 134.902344 C 214.988281 133.617188 213.941406 132.574219 212.65625 132.574219 Z M 212.65625 132.574219 " fill-opacity="1" fill-rule="nonzero"/><path fill="#193564" d="M 274.832031 52.613281 C 273.835938 52.585938 272.789062 50.425781 272.878906 47.378906 C 272.964844 44.332031 274.132812 42.238281 275.128906 42.265625 C 276.125 42.292969 277.167969 44.449219 277.082031 47.5 C 276.996094 50.550781 275.828125 52.644531 274.832031 52.613281 Z M 274.832031 52.613281 " fill-opacity="1" fill-rule="nonzero"/><path fill="#193564" d="M 278.621094 38.300781 C 277.722656 38.320312 276.769531 40.199219 276.761719 42.890625 C 277.382812 43.917969 277.765625 45.464844 277.761719 47.199219 C 278.101562 47.714844 278.480469 48.003906 278.839844 47.996094 C 279.769531 47.976562 280.765625 45.960938 280.699219 43.105469 C 280.636719 40.246094 279.554688 38.28125 278.621094 38.300781 Z M 278.621094 38.300781 " fill-opacity="1" fill-rule="nonzero"/><g clip-path="url(#30b712e88c)"><path fill="#193564" d="M 64.003906 327.769531 L 0.363281 374.9375 L 45.988281 374.9375 L 120.601562 319.375 L 154.300781 294.070312 L 166.761719 310.65625 L 180.453125 256.304688 L 125.925781 256.304688 L 137.878906 272.214844 L 63.964844 327.71875 Z M 64.003906 327.769531 " fill-opacity="1" fill-rule="nonzero"/></g><path fill="#193564" d="M 240.429688 61.761719 C 240.839844 62.328125 240.957031 62.800781 240.957031 62.800781 C 240.957031 62.800781 240.644531 63.503906 240.226562 64.046875 C 239.742188 69.570312 237.789062 73.96875 232.316406 78.828125 C 226.582031 83.917969 226.734375 91.226562 226.847656 93.710938 C 226.957031 96.203125 227.648438 107.851562 224.964844 112.34375 C 223.441406 114.894531 220.546875 116.945312 218.324219 118.242188 C 217.917969 119.027344 217.425781 120.941406 217.425781 120.941406 C 217.425781 120.941406 224.28125 117.804688 226.835938 113.242188 C 229.386719 108.679688 228.371094 97.050781 228.1875 94.570312 C 228.007812 92.089844 227.648438 84.785156 233.234375 79.539062 C 238.570312 74.527344 240.398438 70.078125 240.726562 64.535156 C 241.128906 63.984375 241.421875 63.277344 241.421875 63.277344 C 241.421875 63.277344 241.203125 62.488281 240.429688 61.761719 Z M 240.429688 61.761719 " fill-opacity="0.2" fill-rule="nonzero"/><path fill="#193564" d="M 241.808594 56.320312 L 241.679688 56.300781 C 241.679688 56.300781 239.082031 55.757812 237 54.257812 C 237 54.257812 238.5625 55.960938 241.933594 56.996094 Z M 241.808594 56.320312 " fill-opacity="0.2" fill-rule="nonzero"/><path fill="#193564" d="M 275.3125 41.636719 C 275.375 41.65625 275.433594 41.675781 275.496094 41.695312 C 275.523438 41.710938 275.554688 41.71875 275.585938 41.730469 C 275.664062 41.769531 275.746094 41.8125 275.820312 41.863281 C 275.898438 41.121094 276.054688 40.441406 276.273438 39.851562 C 270.007812 41.023438 251.796875 44.441406 247.734375 44.660156 C 247.484375 44.726562 247.234375 44.78125 246.984375 44.855469 C 246.824219 44.902344 246.671875 44.917969 246.527344 44.917969 C 246.535156 45.039062 246.5625 45.152344 246.605469 45.257812 L 274.085938 41.808594 C 274.363281 41.65625 274.65625 41.570312 274.957031 41.582031 C 275.050781 41.585938 275.140625 41.597656 275.226562 41.617188 C 275.257812 41.621094 275.285156 41.628906 275.3125 41.636719 Z M 275.3125 41.636719 " fill-opacity="0.2" fill-rule="nonzero"/><path fill="#193564" d="M 217.433594 84.011719 L 218.675781 82.792969 C 218.675781 82.792969 218.609375 76.097656 219.144531 70.808594 C 219.144531 70.8125 217.667969 78.539062 217.433594 84.011719 Z M 217.433594 84.011719 " fill-opacity="0.2" fill-rule="nonzero"/><path fill="#193564" d="M 251.347656 77.460938 C 251.347656 77.460938 251.554688 77.707031 251.894531 78.085938 C 252.382812 72.453125 252.007812 67.96875 252.007812 67.96875 C 251.8125 72.9375 251.347656 77.460938 251.347656 77.460938 Z M 251.347656 77.460938 " fill-opacity="0.2" fill-rule="nonzero"/></svg>