<svg width="50" height="50" viewBox="0 0 50 50" fill="none" xmlns="http://www.w3.org/2000/svg">
<g clip-path="url(#clip0_2014_28)">
<path fill-rule="evenodd" clip-rule="evenodd" d="M10.4167 22.9167C10.4167 19.0489 11.9531 15.3396 14.688 12.6047C17.4229 9.86981 21.1323 8.33335 25 8.33335C28.8677 8.33335 32.5771 9.86981 35.312 12.6047C38.0469 15.3396 39.5833 19.0489 39.5833 22.9167C39.5833 27.7542 36.9333 32 33.6021 35.4084C30.3667 38.7146 26.7125 40.9979 25 41.975C23.2875 40.9959 19.6333 38.7146 16.3979 35.4084C13.0667 32.0021 10.4167 27.7542 10.4167 22.9167ZM25 4.16669C20.0272 4.16669 15.2581 6.14213 11.7417 9.65843C8.22544 13.1747 6.25 17.9439 6.25 22.9167C6.25 29.3209 9.74167 34.5625 13.4208 38.3229C17.1208 42.1042 21.25 44.6417 23.0667 45.6688C24.275 46.35 25.725 46.35 26.9312 45.6688C28.75 44.6417 32.8792 42.1063 36.5792 38.3229C40.2583 34.5604 43.75 29.3209 43.75 22.9167C43.75 17.9439 41.7746 13.1747 38.2583 9.65843C34.7419 6.14213 29.9728 4.16669 25 4.16669ZM34.3625 19.5771C34.5559 19.3835 34.7093 19.1538 34.814 18.9009C34.9186 18.6481 34.9724 18.3771 34.9723 18.1035C34.9722 17.8298 34.9182 17.5589 34.8134 17.3061C34.7086 17.0533 34.555 16.8237 34.3615 16.6302C34.1679 16.4368 33.9381 16.2834 33.6853 16.1788C33.4324 16.0741 33.1614 16.0203 32.8878 16.0204C32.6142 16.0205 32.3432 16.0745 32.0904 16.1793C31.8377 16.2841 31.608 16.4377 31.4146 16.6313L22.5729 25.4729L18.8896 21.7896C18.4987 21.399 17.9686 21.1796 17.4159 21.1798C16.8633 21.18 16.3334 21.3997 15.9427 21.7906C15.5521 22.1816 15.3327 22.7117 15.3329 23.2643C15.3331 23.8169 15.5528 24.3469 15.9437 24.7375L20.9521 29.7459C21.1649 29.9588 21.4176 30.1277 21.6957 30.2429C21.9738 30.3581 22.2719 30.4174 22.5729 30.4174C22.874 30.4174 23.172 30.3581 23.4501 30.2429C23.7283 30.1277 23.9809 29.9588 24.1937 29.7459L34.3625 19.5771Z" fill="#5795F4"/>
</g>
<defs>
<clipPath id="clip0_2014_28">
<rect width="50" height="50" fill="white"/>
</clipPath>
</defs>
</svg>
