<svg width="50" height="50" viewBox="0 0 50 50" fill="none" xmlns="http://www.w3.org/2000/svg">
<path d="M2.08331 6.24998V10.4166H47.9166V6.24998C47.9166 5.14491 47.4777 4.0851 46.6963 3.3037C45.9149 2.5223 44.855 2.08331 43.75 2.08331H6.24998C5.14491 2.08331 4.0851 2.5223 3.3037 3.3037C2.5223 4.0851 2.08331 5.14491 2.08331 6.24998ZM8.3479 8.34998C7.93576 8.35039 7.53277 8.22856 7.18989 7.99989C6.84701 7.77122 6.57966 7.44599 6.42166 7.06535C6.26366 6.6847 6.22211 6.26575 6.30226 5.86149C6.38241 5.45722 6.58066 5.08581 6.87194 4.79425C7.16321 4.50268 7.53442 4.30405 7.93861 4.2235C8.34279 4.14294 8.76179 4.18408 9.14259 4.3417C9.52339 4.49932 9.84888 4.76634 10.0779 5.10899C10.3069 5.45164 10.4291 5.85451 10.4291 6.26665C10.4291 6.81918 10.2097 7.34908 9.81895 7.73979C9.42825 8.13049 8.90043 8.34998 8.3479 8.34998ZM14.5896 8.3479C14.1775 8.3479 13.7747 8.22571 13.4321 7.99679C13.0895 7.76787 12.8225 7.4425 12.6648 7.06182C12.5071 6.68114 12.4659 6.26225 12.5463 5.85812C12.6266 5.454 12.8251 5.08278 13.1164 4.79142C13.4078 4.50006 13.779 4.30165 14.1831 4.22126C14.5873 4.14087 15.0061 4.18213 15.3868 4.33981C15.7675 4.4975 16.0929 4.76452 16.3218 5.10713C16.5507 5.44973 16.6729 5.85252 16.6729 6.26456C16.6729 6.8171 16.4534 7.347 16.0627 7.7377C15.672 8.1284 15.1421 8.3479 14.5896 8.3479ZM2.08331 12.5V41.6666C2.08331 42.7717 2.5223 43.8315 3.3037 44.6129C4.0851 45.3943 5.14491 45.8333 6.24998 45.8333H43.75C44.855 45.8333 45.9149 45.3943 46.6963 44.6129C47.4777 43.8315 47.9166 42.7717 47.9166 41.6666V12.5H2.08331ZM43.75 41.6666H6.24998V16.6666H43.75V41.6666Z" fill="#5795F4"/>
<path d="M18.75 37.5L20.2084 36.0417L21.6667 34.5833L18.9584 31.875L16.25 29.1667L18.9584 26.4583L21.6667 23.75L20.2084 22.2917L18.75 20.8333L14.5834 25L10.4167 29.1667L14.5834 33.3333L18.75 37.5ZM28.3334 34.5833L29.7917 36.0417L31.25 37.5L35.4167 33.3333L39.5834 29.1667L35.4167 25L31.25 20.8333L29.7917 22.2917L28.3334 23.75L31.0417 26.4583L33.75 29.1667L31.0417 31.875L28.3334 34.5833Z" fill="#5795F4"/>
<path d="M18.75 37.5L20.2084 36.0417L21.6667 34.5833L18.9584 31.875L16.25 29.1667L18.9584 26.4583L21.6667 23.75L20.2084 22.2917L18.75 20.8333L14.5834 25L10.4167 29.1667L14.5834 33.3333L18.75 37.5ZM28.3334 34.5833L29.7917 36.0417L31.25 37.5L35.4167 33.3333L39.5834 29.1667L35.4167 25L31.25 20.8333L29.7917 22.2917L28.3334 23.75L31.0417 26.4583L33.75 29.1667L31.0417 31.875L28.3334 34.5833Z" fill="#5795F4"/>
</svg>
